<svg width="300" height="300" viewBox="0 0 300 300" fill="none" xmlns="http://www.w3.org/2000/svg">
<rect width="300" height="300" fill="white"/>
<path d="M114.235 196.946L215.046 180.304L173.016 169.623H139.917H28.8374L60.6433 201.696L114.235 196.946Z" fill="#1A1A1A"/>
<path d="M112.745 233.813L235.194 180.304L193.164 169.623H160.065H48.9854L112.745 233.813Z" fill="#1A1A1A"/>
<path d="M94.0495 88.5378L225.208 92.1581L247.97 212.843L113.991 232.049L108.919 195.552L94.0495 88.5378Z" fill="white"/>
<path d="M94.0495 88.5378L64.4365 199.901L108.919 195.552L94.0495 88.5378Z" fill="white"/>
<path d="M108.919 195.552L64.4365 199.901L94.0495 88.5378L225.208 92.1581L247.97 212.843L113.991 232.049L108.919 195.552L94.0495 88.5378" stroke="#1A1A1A" stroke-width="2"/>
<path d="M93.6174 95.897L79.0886 199.998H109.052L93.6174 95.897Z" fill="#1A1A1A"/>
<path d="M170.871 158.033L177.229 141.041L188.416 157.716L208.127 160.232L195.826 172.941L201.936 191.027L183.443 183.613L167.068 194.204L167.619 174.334L151.996 161.047L170.871 158.033Z" fill="#1A1A1A"/>
<path d="M99.02 122.074L230.499 119.852" stroke="#333333" stroke-width="2"/>
</svg>
