<svg width="300" height="300" viewBox="0 0 300 300" fill="none" xmlns="http://www.w3.org/2000/svg">
<rect width="300" height="300" fill="white"/>
<path d="M104.708 236.61L127.894 219.921L188.696 195.937L179.353 162.705L24.426 204.332L104.708 236.61Z" fill="#1A1A1A"/>
<path d="M140.802 224.535H153.438L152.132 222.835L140.802 218.721V224.535Z" fill="#1A1A1A"/>
<path d="M190.403 212.546H203.038L201.732 210.846L190.403 206.732V212.546Z" fill="#1A1A1A"/>
<path d="M238.669 89.1671V204.627L203.187 211.025L179.408 201.55V86.1436L214.996 79.8693L238.669 89.1671Z" fill="white"/>
<path d="M179.408 86.1436V201.55L203.187 211.025L238.669 204.627V89.1671L214.996 79.8693L179.408 86.1436ZM238.669 89.1671L203.187 96.0016M203.187 211.025V96.0016M203.187 96.0016L179.408 86.1436" stroke="#1A1A1A" stroke-width="2"/>
<path d="M189.061 125.167V216.627L153.58 223.025L129.8 213.55V122.144L165.389 115.869L189.061 125.167Z" fill="white"/>
<path d="M129.8 122.144V213.55L153.58 223.025L189.061 216.627V125.167L165.389 115.869L129.8 122.144ZM189.061 125.167L153.58 132.002M153.58 223.025V132.002M153.58 132.002L129.8 122.144" stroke="#1A1A1A" stroke-width="2"/>
<path d="M140.242 161.167V228.627L104.76 235.025L80.9805 225.55V158.144L116.569 151.869L140.242 161.167Z" fill="white"/>
<path d="M80.9805 158.144V225.55L104.76 235.025L140.242 228.627V161.167L116.569 151.869L80.9805 158.144ZM140.242 161.167L104.76 168.002M104.76 235.025V168.002M104.76 168.002L80.9805 158.144" stroke="#1A1A1A" stroke-width="2"/>
<path d="M82.2107 157.928L116.181 151.767L139.078 159.926L104.858 167.919L82.2107 157.928Z" fill="#1A1A1A"/>
<path d="M131.829 122.031L165.799 115.869L188.25 125.104L153.75 131.854L131.829 122.031Z" fill="#1A1A1A"/>
<path d="M180.604 86.0306L214.575 79.8693L238.5 88.354L203.252 96.022L180.604 86.0306Z" fill="#1A1A1A"/>
</svg>
