<svg width="300" height="300" viewBox="0 0 300 300" fill="none" xmlns="http://www.w3.org/2000/svg">
<rect width="300" height="300" fill="white"/>
<path d="M94.3946 242.35L221.856 194.178H187.474H154.375H43.2954L94.3946 242.35Z" fill="#1A1A1A"/>
<path d="M249.365 225.41L95.6533 240.721L78.455 129.187L77.3911 122.288L157.327 81.6085L225.846 129.551L226.953 134.063L249.365 225.41Z" fill="white"/>
<path d="M78.455 129.187L95.6533 240.721L249.365 225.41L226.953 134.063M249.365 225.41L179.393 173.654L166.566 164.167L157.327 174.142L95.6533 240.721M226.953 134.063L179.393 173.654M78.455 129.187L77.3911 122.288L157.327 81.6085L225.846 129.551L226.953 134.063M78.455 129.187L157.327 174.142M225.846 129.551L77.3911 122.288" stroke="#1A1A1A" stroke-width="2"/>
<path d="M78.5288 121.738L157.31 81.8428L224.577 128.909L78.5288 121.738Z" fill="#1A1A1A"/>
<path d="M96.583 237.504L150.624 170.576L158.859 173.897L96.583 237.504Z" fill="#1A1A1A"/>
</svg>
