<svg width="300" height="300" viewBox="0 0 300 300" fill="none" xmlns="http://www.w3.org/2000/svg">
<rect width="300" height="300" fill="white"/>
<path d="M98.6543 258.423L247.26 216.334L157.594 195.519L28.0864 217.156L98.6543 258.423Z" fill="#1A1A1A"/>
<path d="M192.906 132.577V91.5141C192.906 77.2203 181.319 65.6328 167.025 65.6328C153.79 65.6328 143.061 76.3619 143.061 89.597V129.273" stroke="#1A1A1A" stroke-width="8"/>
<path d="M245.736 109.391L130.728 96.4634L78.4988 107.151V220.785L130.728 247.811L245.736 215.203V109.391Z" fill="white"/>
<path d="M130.728 247.811L78.4988 220.785V107.151L130.728 96.4634L245.736 109.391V215.203L130.728 247.811ZM130.728 96.4634V247.811" stroke="#1A1A1A" stroke-width="2"/>
<path d="M201.975 160.5C201.975 166.751 196.907 171.819 190.656 171.819C184.405 171.819 179.338 166.751 179.338 160.5C179.338 154.249 184.405 149.181 190.656 149.181C196.907 149.181 201.975 154.249 201.975 160.5Z" fill="#1A1A1A"/>
<path d="M186.906 169.124H194.406V187.269L186.906 188.624V169.124Z" fill="#1A1A1A"/>
</svg>
