<svg width="300" height="300" viewBox="0 0 300 300" fill="none" xmlns="http://www.w3.org/2000/svg">
<rect width="300" height="300" fill="white"/>
<path d="M75.9197 227.355H180.795L163.193 221.977L95.2166 182.178H60.7122L75.9197 227.355Z" fill="#1A1A1A"/>
<path d="M167.644 223.31C194.342 233.313 226.451 213.49 239.363 179.034C252.274 144.577 241.099 108.534 214.401 98.5303L207.805 96.667L127.204 81.6627C105.756 78.2676 83.0399 92.7161 73.96 116.947C64.1912 143.018 74.6313 169.324 95.2371 180.923L157.966 218.096C160.912 220.24 164.145 221.998 167.644 223.31Z" fill="white"/>
<path d="M207.805 96.667L127.204 81.6627C105.756 78.2676 83.0399 92.7161 73.96 116.947C64.1912 143.018 74.6313 169.324 95.2371 180.923L157.966 218.096M157.966 218.096C160.913 220.24 164.145 221.998 167.644 223.31C194.342 233.313 226.451 213.49 239.363 179.034C252.274 144.577 241.099 108.534 214.401 98.5303C187.703 88.5263 155.594 108.349 142.683 142.806C131.463 172.747 138.431 203.884 157.966 218.096Z" stroke="#1A1A1A" stroke-width="2"/>
<path fill-rule="evenodd" clip-rule="evenodd" d="M138.062 176.436C147.331 170.205 155.077 160.655 159.539 148.749C163.987 136.876 164.435 124.624 161.57 113.858C153.96 121.513 147.564 131.333 143.28 142.764C139.015 154.147 137.379 165.703 138.062 176.436Z" fill="#1A1A1A"/>
</svg>
