<svg width="656" height="197" viewBox="0 0 656 197" fill="none" xmlns="http://www.w3.org/2000/svg">
<path d="M101.896 12.6541C105.663 12.5264 107.086 16.615 103.998 18.7046C103.237 19.2199 100.815 19.6937 99.7909 20.0325C97.1834 20.9035 94.6798 22.0597 92.3264 23.4802C84.2834 28.3832 78.9339 35.7043 76.6192 44.8016C72.809 59.7769 81.4885 77.0321 98.3347 76.8556C101.479 76.8226 103.357 76.1778 105.975 74.4721C105.067 78.3899 104.703 79.4423 101.511 82.0245C100.103 82.8037 98.5933 83.3808 97.0251 83.7392C82.6818 86.8848 70.7511 73.0612 68.0658 60.1278C66.0194 50.0117 68.1033 39.4975 73.8534 30.9257C80.3341 21.0784 90.491 15.0552 101.896 12.6541Z" fill="#45E227"/>
<path d="M127.677 21.5713C131.299 22.6137 131.389 26.9421 127.806 27.9749C126.923 28.2298 124.474 27.9322 123.395 27.9379C120.646 27.9605 117.908 28.2864 115.23 28.9101C106.066 31.0878 98.7159 36.3975 93.7033 44.3343C85.4519 57.3992 88.3744 76.492 104.451 81.5299C107.452 82.4703 109.437 82.4372 112.454 81.624C110.379 85.0694 109.708 85.9579 105.874 87.4273C104.295 87.7335 102.68 87.8156 101.078 87.6719C86.4647 86.2312 79.3896 69.3974 80.8324 56.2671C82.0122 46.0138 87.2432 36.6582 95.3607 30.2828C104.567 22.9202 116.088 20.3304 127.677 21.5713Z" fill="#45E227"/>
<path d="M149.441 38.0188C152.563 40.1294 151.312 44.2737 147.585 44.1487C146.666 44.1183 144.429 43.0785 143.401 42.7504C140.779 41.9224 138.074 41.3862 135.335 41.1521C125.946 40.3912 117.315 43.1698 110.096 49.1691C98.2107 59.0447 95.0902 78.1062 108.823 87.8653C111.386 89.6871 113.285 90.2691 116.405 90.4278C113.367 93.0635 112.455 93.7013 108.354 93.914C106.758 93.7171 105.197 93.2963 103.717 92.6645C90.2644 86.7786 88.7375 68.5824 94.1671 56.5406C98.4577 47.1537 106.324 39.8724 116.014 36.3175C127.045 32.1602 138.803 33.2574 149.441 38.0188Z" fill="#45E227"/>
<path d="M165.057 60.3866C167.374 63.3588 164.903 66.9134 161.397 65.6428C160.533 65.3301 158.726 63.6497 157.85 63.0201C155.613 61.4226 153.206 60.0767 150.673 59.0076C141.979 55.3827 132.912 55.3581 124.191 58.8328C109.837 64.5524 100.979 81.7166 111.023 95.2418C112.898 97.7665 114.524 98.9066 117.442 100.022C113.739 101.59 112.674 101.914 108.709 100.85C107.251 100.169 105.896 99.2864 104.685 98.2284C93.709 88.4734 97.8797 70.6959 106.765 60.9213C113.746 53.3196 123.477 48.8255 133.792 48.4391C145.567 47.894 156.41 52.5708 165.057 60.3866Z" fill="#45E227"/>
<path d="M172.996 86.4852C174.282 90.028 170.833 92.645 167.891 90.3532C167.166 89.7888 165.967 87.6324 165.329 86.7628C163.694 84.5521 161.821 82.5283 159.743 80.729C152.594 74.5948 143.979 71.7695 134.611 72.3793C119.192 73.3832 105.463 86.97 110.837 102.937C111.84 105.918 113.033 107.504 115.464 109.467C111.458 109.814 110.344 109.793 106.902 107.555C105.726 106.457 104.711 105.2 103.885 103.819C96.4612 91.1496 105.921 75.5311 117.392 68.9805C126.381 63.9082 137.024 62.6411 146.953 65.4609C158.321 68.5815 167.188 76.38 172.996 86.4852Z" fill="#45E227"/>
<path d="M172.482 113.76C172.61 117.527 168.522 118.95 166.432 115.861C165.917 115.1 165.443 112.679 165.104 111.654C164.233 109.047 163.077 106.543 161.656 104.19C156.753 96.1469 149.432 90.7975 140.335 88.4828C125.36 84.6725 108.104 93.352 108.281 110.198C108.314 113.343 108.959 115.221 110.665 117.838C106.747 116.93 105.694 116.567 103.112 113.374C102.333 111.967 101.756 110.457 101.397 108.889C98.2518 94.5453 112.075 82.6146 125.009 79.9293C135.125 77.8829 145.639 79.9668 154.211 85.7169C164.058 92.1977 170.081 102.355 172.482 113.76Z" fill="#45E227"/>
<path d="M163.565 139.541C162.523 143.163 158.195 143.253 157.162 139.67C156.907 138.787 157.204 136.337 157.199 135.258C157.176 132.509 156.85 129.771 156.226 127.094C154.049 117.929 148.739 110.579 140.802 105.567C127.737 97.3154 108.645 100.238 103.607 116.314C102.666 119.315 102.699 121.3 103.513 124.317C100.067 122.242 99.1787 121.572 97.7093 117.738C97.4031 116.158 97.321 114.544 97.4647 112.941C98.9054 98.3282 115.739 91.2531 128.869 92.6959C139.123 93.8757 148.478 99.1067 154.854 107.224C162.216 116.431 164.806 127.952 163.565 139.541Z" fill="#45E227"/>
<path d="M147.118 161.305C145.007 164.427 140.863 163.175 140.988 159.448C141.018 158.53 142.058 156.292 142.386 155.264C143.214 152.643 143.75 149.938 143.985 147.199C144.745 137.81 141.967 129.179 135.967 121.959C126.092 110.074 107.03 106.954 97.2712 120.686C95.4495 123.25 94.8675 125.148 94.7088 128.268C92.0731 125.231 91.4353 124.318 91.2226 120.218C91.4195 118.621 91.8403 117.06 92.4721 115.581C98.358 102.128 116.554 100.601 128.596 106.031C137.983 110.321 145.264 118.187 148.819 127.877C152.976 138.909 151.879 150.666 147.118 161.305Z" fill="#45E227"/>
<path d="M124.75 176.92C121.778 179.238 118.223 176.767 119.494 173.261C119.807 172.396 121.487 170.59 122.116 169.714C123.714 167.476 125.06 165.069 126.129 162.537C129.754 153.843 129.778 144.775 126.304 136.055C120.584 121.7 103.42 112.842 89.8948 122.887C87.3701 124.762 86.23 126.387 85.1147 129.306C83.5468 125.602 83.2222 124.537 84.287 120.572C84.9676 119.114 85.8502 117.76 86.9082 116.548C96.6632 105.572 114.441 109.743 124.215 118.628C131.817 125.61 136.311 135.341 136.698 145.655C137.243 157.431 132.566 168.274 124.75 176.92Z" fill="#45E227"/>
<path d="M98.6514 184.86C95.1086 186.145 92.4916 182.697 94.7833 179.755C95.3478 179.03 97.5042 177.831 98.3738 177.192C100.584 175.558 102.608 173.685 104.408 171.606C110.542 164.458 113.367 155.842 112.757 146.475C111.753 131.055 98.1666 117.326 82.1994 122.7C79.2188 123.703 77.6323 124.897 75.6697 127.328C75.3229 123.321 75.3433 122.208 77.5814 118.766C78.6792 117.59 79.9371 116.574 81.3178 115.749C93.987 108.325 109.606 117.785 116.156 129.256C121.228 138.244 122.495 148.888 119.676 158.817C116.555 170.185 108.757 179.052 98.6514 184.86Z" fill="#45E227"/>
<path d="M71.3767 184.346C67.61 184.474 66.1868 180.385 69.2755 178.296C70.0364 177.78 72.4577 177.306 73.4821 176.968C76.0896 176.097 78.5933 174.94 80.9467 173.52C88.9897 168.617 94.3391 161.296 96.6538 152.198C100.464 137.223 91.7846 119.968 74.9383 120.145C71.7937 120.178 69.9159 120.822 67.2981 122.528C68.2066 118.61 68.5699 117.558 71.7622 114.976C73.1696 114.196 74.6798 113.619 76.248 113.261C90.5912 110.115 102.522 123.939 105.207 136.872C107.254 146.988 105.17 157.503 99.4197 166.074C92.9389 175.922 82.782 181.945 71.3767 184.346Z" fill="#45E227"/>
<path d="M45.5957 175.429C41.9739 174.386 41.8838 170.058 45.467 169.025C46.35 168.77 48.7992 169.068 49.8781 169.062C52.6272 169.04 55.3656 168.714 58.0428 168.09C67.2072 165.912 74.5572 160.603 79.5698 152.666C87.8212 139.601 84.8987 120.508 68.8224 115.47C65.8214 114.53 63.8363 114.563 60.8195 115.376C62.8942 111.931 63.565 111.042 67.3989 109.573C68.9783 109.267 70.5928 109.185 72.1951 109.328C86.8084 110.769 93.8835 127.603 92.4407 140.733C91.2609 150.986 86.0299 160.342 77.9124 166.717C68.7059 174.08 57.1848 176.67 45.5957 175.429Z" fill="#45E227"/>
<path d="M23.8321 158.981C20.7097 156.871 21.9615 152.726 25.6885 152.851C26.607 152.882 28.8444 153.922 29.8723 154.25C32.4938 155.078 35.1988 155.614 37.9378 155.848C47.3266 156.609 55.9576 153.83 63.1775 147.831C75.0623 137.955 78.1829 118.894 64.4502 109.135C61.8867 107.313 59.9885 106.731 56.8681 106.572C59.9059 103.937 60.8185 103.299 64.9188 103.086C66.5155 103.283 68.0764 103.704 69.5558 104.336C83.0087 110.222 84.5356 128.418 79.1059 140.46C74.8154 149.846 66.9494 157.128 57.2591 160.683C46.228 164.84 34.4705 163.743 23.8321 158.981Z" fill="#45E227"/>
<path d="M8.21619 136.614C5.89884 133.641 8.37008 130.087 11.8761 131.357C12.7402 131.67 14.5467 133.35 15.4229 133.98C17.6602 135.578 20.0672 136.923 22.5998 137.992C31.2939 141.617 40.3612 141.642 49.0816 138.167C63.4364 132.448 72.2946 115.283 62.2498 101.758C60.3747 99.2336 58.7493 98.0935 55.8306 96.9783C59.5342 95.4103 60.5992 95.0857 64.5646 96.1506C66.0223 96.8312 67.3768 97.7137 68.5885 98.7718C79.5641 108.527 75.3933 126.304 66.5083 136.079C59.5271 143.68 49.796 148.175 39.4815 148.561C27.7056 149.106 16.8626 144.429 8.21619 136.614Z" fill="#45E227"/>
<path d="M0.276646 110.515C-1.00882 106.972 2.43991 104.355 5.38167 106.647C6.10688 107.211 7.30571 109.368 7.94447 110.237C9.57861 112.448 11.4519 114.472 13.5301 116.271C20.6786 122.405 29.2945 125.231 38.6618 124.621C54.0815 123.617 67.8101 110.03 62.4365 94.0629C61.4333 91.0824 60.2398 89.4958 57.8086 87.5332C61.8155 87.1865 62.9286 87.2069 66.3709 89.4449C67.5469 90.5427 68.5624 91.8006 69.3879 93.1813C76.8118 105.851 67.3517 121.469 55.881 128.02C46.8924 133.092 36.2488 134.359 26.3197 131.539C14.9518 128.419 6.08469 120.62 0.276646 110.515Z" fill="#45E227"/>
<path d="M0.790601 83.2402C0.662841 79.4735 4.75148 78.0503 6.84106 81.139C7.35634 81.9 7.83015 84.3212 8.16892 85.3456C9.03994 87.9532 10.1961 90.4568 11.6166 92.8102C16.5197 100.853 23.8408 106.203 32.9381 108.517C47.9133 112.328 65.1686 103.648 64.9921 86.8019C64.9591 83.6572 64.3142 81.7794 62.6085 79.1616C66.5264 80.0701 67.5788 80.4335 70.1609 83.6257C70.9402 85.0332 71.5172 86.5433 71.8757 88.1115C75.0213 102.455 61.1977 114.386 48.2642 117.071C38.1481 119.117 27.6339 117.033 19.0622 111.283C9.21492 104.802 3.19171 94.6456 0.790601 83.2402Z" fill="#45E227"/>
<path d="M9.70776 57.4592C10.7502 53.8374 15.0785 53.7473 16.1114 57.3306C16.3663 58.2135 16.0687 60.6627 16.0743 61.7416C16.097 64.4907 16.4229 67.2291 17.0466 69.9063C19.2243 79.0707 24.534 86.4207 32.4708 91.4333C45.5356 99.6847 64.6285 96.7622 69.6664 80.6859C70.6068 77.6849 70.5737 75.6998 69.7604 72.6831C73.2059 74.7577 74.0944 75.4285 75.5637 79.2625C75.87 80.8418 75.9521 82.4564 75.8084 84.0586C74.3677 98.6719 57.5339 105.747 44.4036 104.304C34.1503 103.124 24.7946 97.8934 18.4193 89.7759C11.0567 80.5694 8.4669 69.0483 9.70776 57.4592Z" fill="#45E227"/>
<path d="M26.1553 35.6956C28.2659 32.5732 32.4102 33.825 32.2852 37.5521C32.2548 38.4706 31.2149 40.7079 30.8869 41.7358C30.0589 44.3573 29.5227 47.0624 29.2886 49.8013C28.5277 59.1901 31.3062 67.8212 37.3056 75.0411C47.1812 86.9259 66.2426 90.0464 76.0018 76.3137C77.8235 73.7502 78.4055 71.8521 78.5643 68.7316C81.2 71.7695 81.8378 72.682 82.0504 76.7823C81.8536 78.379 81.4328 79.9399 80.801 81.4194C74.9151 94.8722 56.7189 96.3991 44.6771 90.9695C35.2901 86.6789 28.0089 78.8129 24.454 69.1226C20.2967 58.0915 21.3939 46.3341 26.1553 35.6956Z" fill="#45E227"/>
<path d="M48.5231 20.0797C51.4953 17.7624 55.0499 20.2336 53.7793 23.7396C53.4666 24.6037 51.7862 26.4102 51.1566 27.2864C49.5591 29.5238 48.2132 31.9307 47.1441 34.4633C43.5192 43.1574 43.4946 52.2247 46.9693 60.9451C52.6889 75.3 69.8531 84.1581 83.3783 74.1133C85.903 72.2382 87.0431 70.6128 88.1583 67.6942C89.7263 71.3978 90.0509 72.4627 88.986 76.4281C88.3054 77.8858 87.4229 79.2403 86.3648 80.4521C76.6098 91.4276 58.8324 87.2569 49.0578 78.3718C41.4561 71.3906 36.962 61.6595 36.5756 51.345C36.0305 39.5691 40.7073 28.7262 48.5231 20.0797Z" fill="#45E227"/>
<path d="M74.6217 12.1402C78.1645 10.8547 80.7815 14.3034 78.4897 17.2452C77.9252 17.9704 75.7689 19.1692 74.8993 19.808C72.6886 21.4421 70.6648 23.3154 68.8655 25.3936C62.7313 32.5421 59.906 41.158 60.5158 50.5253C61.5196 65.9451 75.1065 79.6737 91.0737 74.3C94.0543 73.2969 95.6408 72.1033 97.6034 69.6722C97.9501 73.679 97.9297 74.7922 95.6917 78.2344C94.5939 79.4105 93.336 80.4259 91.9553 81.2514C79.2861 88.6754 63.6675 79.2152 57.117 67.7445C52.0447 58.7559 50.7776 48.1123 53.5974 38.1832C56.718 26.8153 64.5165 17.9482 74.6217 12.1402Z" fill="#45E227"/>
<path d="M246.446 163.422C217.747 163.422 199.373 146.098 197.273 120.899L213.022 119.849C215.472 138.398 226.847 148.722 246.796 148.722C264.12 148.722 274.269 141.898 274.269 129.123C274.269 117.574 268.495 110.574 238.746 103.225C210.047 96.05 199.898 87.4754 199.898 68.9264C199.898 48.1024 215.647 33.5781 241.196 33.5781C268.495 33.5781 284.594 50.3773 287.394 73.1262L271.644 74.1761C269.544 59.1268 259.395 48.2774 240.846 48.2774C225.447 48.2774 215.647 56.327 215.647 68.2264C215.647 79.9508 221.947 84.1506 248.196 90.6253C279.344 98.3249 290.018 110.224 290.018 128.073C290.018 149.772 271.819 163.422 246.446 163.422Z" fill="white"/>
<path d="M314.81 160.622V36.378H392.856V51.0772H329.859V92.7252H389.706V107.074H329.859V160.622H314.81Z" fill="white"/>
<path d="M418.027 160.622V36.378H439.026L478.749 144.173L518.297 36.378H539.296V160.622H524.247V64.3766L488.724 160.622H468.6L433.077 64.3766V160.622H418.027Z" fill="white"/>
<path d="M567.043 160.622V36.378H611.666C639.315 36.378 655.589 50.3773 655.589 74.0011C655.589 97.9749 639.315 112.324 611.666 112.324H582.093V160.622H567.043ZM582.093 97.6249H611.666C630.39 97.6249 639.84 89.5753 639.84 74.0011C639.84 58.7769 630.39 51.0772 611.666 51.0772H582.093V97.6249Z" fill="white"/>
</svg>
