<svg width="174" height="174" viewBox="0 0 174 174" fill="none" xmlns="http://www.w3.org/2000/svg">
<path d="M101.896 0.790603C105.663 0.662842 107.086 4.75148 103.998 6.84106C103.237 7.35634 100.815 7.83015 99.7909 8.16893C97.1834 9.03994 94.6798 10.1961 92.3264 11.6166C84.2834 16.5197 78.9339 23.8408 76.6192 32.9381C72.809 47.9133 81.4885 65.1686 98.3347 64.9921C101.479 64.9591 103.357 64.3142 105.975 62.6085C105.067 66.5264 104.703 67.5788 101.511 70.1609C100.103 70.9402 98.5933 71.5172 97.0251 71.8757C82.6818 75.0213 70.7511 61.1977 68.0658 48.2642C66.0194 38.1481 68.1033 27.6339 73.8534 19.0622C80.3341 9.21492 90.491 3.19171 101.896 0.790603Z" fill="#45E227"/>
<path d="M127.677 9.70776C131.299 10.7502 131.389 15.0785 127.806 16.1114C126.923 16.3663 124.474 16.0687 123.395 16.0743C120.646 16.097 117.908 16.4229 115.23 17.0466C106.066 19.2243 98.7159 24.534 93.7033 32.4708C85.4519 45.5356 88.3744 64.6285 104.451 69.6664C107.452 70.6068 109.437 70.5737 112.454 69.7604C110.379 73.2059 109.708 74.0944 105.874 75.5637C104.295 75.8699 102.68 75.9521 101.078 75.8084C86.4647 74.3677 79.3896 57.5339 80.8324 44.4036C82.0122 34.1503 87.2432 24.7946 95.3607 18.4193C104.567 11.0567 116.088 8.4669 127.677 9.70776Z" fill="#45E227"/>
<path d="M149.441 26.1552C152.563 28.2659 151.312 32.4102 147.585 32.2852C146.666 32.2548 144.429 31.2149 143.401 30.8869C140.779 30.0589 138.074 29.5227 135.335 29.2886C125.946 28.5277 117.315 31.3062 110.096 37.3056C98.2107 47.1812 95.0902 66.2426 108.823 76.0018C111.386 77.8235 113.285 78.4055 116.405 78.5643C113.367 81.2 112.455 81.8378 108.354 82.0504C106.758 81.8536 105.197 81.4328 103.717 80.801C90.2644 74.9151 88.7375 56.7189 94.1671 44.6771C98.4577 35.2901 106.324 28.0089 116.014 24.454C127.045 20.2967 138.803 21.3939 149.441 26.1552Z" fill="#45E227"/>
<path d="M165.057 48.523C167.374 51.4952 164.903 55.0499 161.397 53.7793C160.533 53.4666 158.726 51.7862 157.85 51.1566C155.613 49.559 153.206 48.2131 150.673 47.1441C141.979 43.5192 132.912 43.4946 124.191 46.9692C109.837 52.6889 100.979 69.8531 111.023 83.3783C112.898 85.903 114.524 87.0431 117.442 88.1583C113.739 89.7263 112.674 90.0509 108.709 88.986C107.251 88.3054 105.896 87.4229 104.685 86.3648C93.709 76.6098 97.8797 58.8324 106.765 49.0578C113.746 41.4561 123.477 36.962 133.792 36.5755C145.567 36.0305 156.41 40.7072 165.057 48.523Z" fill="#45E227"/>
<path d="M172.996 74.6217C174.282 78.1645 170.833 80.7815 167.891 78.4897C167.166 77.9252 165.967 75.7689 165.329 74.8993C163.694 72.6886 161.821 70.6648 159.743 68.8655C152.594 62.7313 143.979 59.906 134.611 60.5158C119.192 61.5196 105.463 75.1065 110.837 91.0737C111.84 94.0543 113.033 95.6408 115.464 97.6034C111.458 97.9501 110.344 97.9297 106.902 95.6917C105.726 94.5939 104.711 93.336 103.885 91.9553C96.4612 79.2861 105.921 63.6675 117.392 57.117C126.381 52.0447 137.024 50.7776 146.953 53.5974C158.321 56.718 167.188 64.5165 172.996 74.6217Z" fill="#45E227"/>
<path d="M172.482 101.896C172.61 105.663 168.522 107.086 166.432 103.998C165.917 103.237 165.443 100.815 165.104 99.791C164.233 97.1835 163.077 94.6798 161.656 92.3264C156.753 84.2834 149.432 78.9339 140.335 76.6193C125.36 72.809 108.104 81.4885 108.281 98.3347C108.314 101.479 108.959 103.357 110.665 105.975C106.747 105.067 105.694 104.703 103.112 101.511C102.333 100.103 101.756 98.5933 101.397 97.0251C98.2518 82.6818 112.075 70.7511 125.009 68.0658C135.125 66.0194 145.639 68.1033 154.211 73.8534C164.058 80.3341 170.081 90.491 172.482 101.896Z" fill="#45E227"/>
<path d="M163.565 127.677C162.523 131.299 158.195 131.389 157.162 127.806C156.907 126.923 157.204 124.474 157.199 123.395C157.176 120.646 156.85 117.908 156.226 115.23C154.049 106.066 148.739 98.7159 140.802 93.7033C127.737 85.4519 108.645 88.3744 103.607 104.451C102.666 107.452 102.699 109.437 103.513 112.454C100.067 110.379 99.1787 109.708 97.7093 105.874C97.4031 104.295 97.321 102.68 97.4647 101.078C98.9054 86.4647 115.739 79.3896 128.869 80.8324C139.123 82.0122 148.478 87.2432 154.854 95.3607C162.216 104.567 164.806 116.088 163.565 127.677Z" fill="#45E227"/>
<path d="M147.118 149.441C145.007 152.563 140.863 151.312 140.988 147.585C141.018 146.666 142.058 144.429 142.386 143.401C143.214 140.779 143.75 138.074 143.985 135.335C144.745 125.946 141.967 117.315 135.967 110.096C126.092 98.2107 107.03 95.0902 97.2712 108.823C95.4495 111.386 94.8675 113.285 94.7088 116.405C92.0731 113.367 91.4353 112.455 91.2226 108.354C91.4195 106.758 91.8403 105.197 92.4721 103.717C98.358 90.2644 116.554 88.7375 128.596 94.1671C137.983 98.4576 145.264 106.324 148.819 116.014C152.976 127.045 151.879 138.803 147.118 149.441Z" fill="#45E227"/>
<path d="M124.75 165.057C121.778 167.374 118.223 164.903 119.494 161.397C119.807 160.533 121.487 158.726 122.116 157.85C123.714 155.613 125.06 153.206 126.129 150.673C129.754 141.979 129.778 132.912 126.304 124.191C120.584 109.837 103.42 100.979 89.8948 111.023C87.3701 112.898 86.23 114.524 85.1147 117.442C83.5468 113.739 83.2222 112.674 84.287 108.709C84.9676 107.251 85.8502 105.896 86.9082 104.685C96.6632 93.709 114.441 97.8797 124.215 106.765C131.817 113.746 136.311 123.477 136.698 133.792C137.243 145.567 132.566 156.41 124.75 165.057Z" fill="#45E227"/>
<path d="M98.6514 172.996C95.1086 174.282 92.4916 170.833 94.7833 167.891C95.3478 167.166 97.5042 165.967 98.3738 165.329C100.584 163.694 102.608 161.821 104.408 159.743C110.542 152.594 113.367 143.979 112.757 134.611C111.753 119.192 98.1666 105.463 82.1994 110.837C79.2188 111.84 77.6323 113.033 75.6697 115.464C75.3229 111.458 75.3433 110.344 77.5814 106.902C78.6792 105.726 79.9371 104.711 81.3178 103.885C93.987 96.4612 109.606 105.921 116.156 117.392C121.228 126.381 122.495 137.024 119.676 146.953C116.555 158.321 108.757 167.188 98.6514 172.996Z" fill="#45E227"/>
<path d="M71.3767 172.482C67.61 172.61 66.1868 168.522 69.2755 166.432C70.0364 165.917 72.4577 165.443 73.4821 165.104C76.0896 164.233 78.5933 163.077 80.9467 161.656C88.9897 156.753 94.3391 149.432 96.6538 140.335C100.464 125.36 91.7846 108.104 74.9383 108.281C71.7937 108.314 69.9159 108.959 67.2981 110.665C68.2066 106.747 68.5699 105.694 71.7622 103.112C73.1696 102.333 74.6798 101.756 76.248 101.397C90.5912 98.2518 102.522 112.075 105.207 125.009C107.254 135.125 105.17 145.639 99.4197 154.211C92.9389 164.058 82.782 170.081 71.3767 172.482Z" fill="#45E227"/>
<path d="M45.5957 163.565C41.9739 162.523 41.8838 158.195 45.467 157.162C46.35 156.907 48.7992 157.204 49.8781 157.199C52.6272 157.176 55.3656 156.85 58.0428 156.226C67.2072 154.049 74.5572 148.739 79.5698 140.802C87.8212 127.737 84.8987 108.645 68.8224 103.607C65.8214 102.666 63.8363 102.699 60.8195 103.513C62.8942 100.067 63.565 99.1787 67.3989 97.7093C68.9783 97.4031 70.5928 97.321 72.1951 97.4647C86.8084 98.9054 93.8835 115.739 92.4407 128.869C91.2609 139.123 86.0299 148.478 77.9124 154.854C68.7059 162.216 57.1848 164.806 45.5957 163.565Z" fill="#45E227"/>
<path d="M23.8321 147.118C20.7097 145.007 21.9615 140.863 25.6885 140.988C26.607 141.018 28.8444 142.058 29.8723 142.386C32.4938 143.214 35.1988 143.75 37.9378 143.985C47.3266 144.745 55.9576 141.967 63.1775 135.967C75.0623 126.092 78.1829 107.03 64.4502 97.2712C61.8867 95.4495 59.9885 94.8675 56.8681 94.7088C59.9059 92.0731 60.8185 91.4353 64.9188 91.2226C66.5155 91.4195 68.0764 91.8403 69.5558 92.4721C83.0087 98.358 84.5356 116.554 79.1059 128.596C74.8154 137.983 66.9494 145.264 57.2591 148.819C46.228 152.976 34.4705 151.879 23.8321 147.118Z" fill="#45E227"/>
<path d="M8.21619 124.75C5.89884 121.778 8.37008 118.223 11.8761 119.494C12.7402 119.807 14.5467 121.487 15.4229 122.116C17.6602 123.714 20.0672 125.06 22.5998 126.129C31.2939 129.754 40.3612 129.778 49.0816 126.304C63.4364 120.584 72.2946 103.42 62.2498 89.8948C60.3747 87.3701 58.7493 86.23 55.8306 85.1147C59.5342 83.5468 60.5992 83.2222 64.5646 84.287C66.0223 84.9676 67.3768 85.8502 68.5885 86.9082C79.5641 96.6632 75.3933 114.441 66.5083 124.215C59.5271 131.817 49.796 136.311 39.4815 136.698C27.7056 137.243 16.8626 132.566 8.21619 124.75Z" fill="#45E227"/>
<path d="M0.276646 98.6514C-1.00882 95.1086 2.43991 92.4916 5.38167 94.7834C6.10688 95.3479 7.30571 97.5042 7.94447 98.3738C9.57861 100.585 11.4519 102.608 13.5301 104.408C20.6786 110.542 29.2945 113.367 38.6618 112.757C54.0815 111.753 67.8101 98.1666 62.4365 82.1994C61.4333 79.2188 60.2398 77.6323 57.8086 75.6697C61.8155 75.323 62.9286 75.3434 66.3709 77.5814C67.5469 78.6792 68.5624 79.9371 69.3879 81.3178C76.8118 93.987 67.3517 109.606 55.881 116.156C46.8924 121.228 36.2488 122.495 26.3197 119.676C14.9518 116.555 6.08469 108.757 0.276646 98.6514Z" fill="#45E227"/>
<path d="M0.790601 71.3767C0.662841 67.61 4.75148 66.1868 6.84106 69.2755C7.35634 70.0365 7.83015 72.4577 8.16892 73.4821C9.03994 76.0896 10.1961 78.5933 11.6166 80.9467C16.5197 88.9897 23.8408 94.3391 32.9381 96.6538C47.9133 100.464 65.1686 91.7846 64.9921 74.9383C64.9591 71.7937 64.3142 69.9159 62.6085 67.2981C66.5264 68.2066 67.5788 68.5699 70.1609 71.7622C70.9402 73.1696 71.5172 74.6798 71.8757 76.248C75.0213 90.5912 61.1977 102.522 48.2642 105.207C38.1481 107.254 27.6339 105.17 19.0622 99.4197C9.21492 92.9389 3.19171 82.782 0.790601 71.3767Z" fill="#45E227"/>
<path d="M9.70776 45.5957C10.7502 41.9739 15.0785 41.8838 16.1114 45.467C16.3663 46.35 16.0687 48.7992 16.0743 49.8781C16.097 52.6272 16.4229 55.3655 17.0466 58.0428C19.2243 67.2072 24.534 74.5572 32.4708 79.5698C45.5356 87.8212 64.6285 84.8987 69.6664 68.8224C70.6068 65.8214 70.5737 63.8363 69.7604 60.8195C73.2059 62.8942 74.0944 63.565 75.5637 67.3989C75.87 68.9783 75.9521 70.5928 75.8084 72.1951C74.3677 86.8084 57.5339 93.8835 44.4036 92.4407C34.1503 91.2609 24.7946 86.0299 18.4193 77.9124C11.0567 68.7059 8.4669 57.1848 9.70776 45.5957Z" fill="#45E227"/>
<path d="M26.1553 23.8321C28.2659 20.7097 32.4102 21.9615 32.2852 25.6885C32.2548 26.607 31.2149 28.8444 30.8869 29.8723C30.0589 32.4938 29.5227 35.1988 29.2886 37.9378C28.5277 47.3266 31.3062 55.9576 37.3056 63.1775C47.1812 75.0623 66.2426 78.1829 76.0018 64.4502C77.8235 61.8867 78.4055 59.9885 78.5643 56.8681C81.2 59.9059 81.8378 60.8185 82.0504 64.9188C81.8536 66.5155 81.4328 68.0764 80.801 69.5558C74.9151 83.0087 56.7189 84.5356 44.6771 79.1059C35.2901 74.8154 28.0089 66.9494 24.454 57.2591C20.2967 46.228 21.3939 34.4705 26.1553 23.8321Z" fill="#45E227"/>
<path d="M48.5231 8.21618C51.4953 5.89883 55.0499 8.37008 53.7793 11.8761C53.4666 12.7402 51.7862 14.5467 51.1566 15.4229C49.5591 17.6602 48.2132 20.0672 47.1441 22.5998C43.5192 31.2939 43.4946 40.3612 46.9693 49.0816C52.6889 63.4364 69.8531 72.2946 83.3783 62.2498C85.903 60.3747 87.0431 58.7493 88.1583 55.8306C89.7263 59.5342 90.0509 60.5992 88.986 64.5646C88.3054 66.0223 87.4229 67.3768 86.3648 68.5885C76.6098 79.5641 58.8324 75.3933 49.0578 66.5083C41.4561 59.5271 36.962 49.796 36.5756 39.4815C36.0305 27.7056 40.7073 16.8626 48.5231 8.21618Z" fill="#45E227"/>
<path d="M74.6217 0.276646C78.1645 -1.00882 80.7815 2.43991 78.4897 5.38167C77.9252 6.10688 75.7689 7.30571 74.8993 7.94447C72.6886 9.57861 70.6648 11.4519 68.8655 13.5301C62.7313 20.6786 59.906 29.2945 60.5158 38.6618C61.5196 54.0815 75.1065 67.8101 91.0737 62.4365C94.0543 61.4333 95.6408 60.2398 97.6034 57.8086C97.9501 61.8155 97.9297 62.9286 95.6917 66.3709C94.5939 67.5469 93.336 68.5624 91.9553 69.3879C79.2861 76.8118 63.6675 67.3517 57.117 55.881C52.0447 46.8924 50.7776 36.2488 53.5974 26.3197C56.718 14.9518 64.5165 6.08469 74.6217 0.276646Z" fill="#45E227"/>
</svg>
