<svg width="300" height="300" viewBox="0 0 300 300" fill="none" xmlns="http://www.w3.org/2000/svg">

<ellipse cx="155.244" cy="235.25" rx="71.9237" ry="10.3332" fill="#1A1A1A"/>
<path d="M170.566 224.543C133.362 238.154 98.4164 236.103 92.5115 219.962C92.1651 219.015 91.9264 218.041 91.7913 217.043L79.4579 136.55C74.0368 104.995 84.8876 81.5482 112.748 71.1737C140.608 60.7992 163.364 72.1678 176.548 92.0873C189.321 111.385 223.665 164.516 225.797 167.815C226.386 168.713 226.868 169.666 227.237 170.674C233.142 186.815 207.769 210.933 170.566 224.543Z" fill="white"/>
<path d="M120.75 61.354C120.75 66.7388 116.385 71.104 111 71.104C105.615 71.104 101.25 66.7388 101.25 61.354C101.25 55.9692 105.615 51.604 111 51.604C116.385 51.604 120.75 55.9692 120.75 61.354Z" fill="white"/>
<path d="M91.867 217.537L79.4579 136.55C74.0368 104.995 84.8876 81.5482 112.748 71.1737C140.608 60.7992 163.364 72.1678 176.548 92.0873C189.733 112.007 225.901 167.976 225.901 167.976M170.566 224.543C133.362 238.154 98.4164 236.103 92.5115 219.962C86.6066 203.822 111.979 179.704 149.182 166.093C186.386 152.483 221.332 154.534 227.237 170.674C233.142 186.815 207.769 210.933 170.566 224.543ZM120.75 61.354C120.75 66.7388 116.385 71.104 111 71.104C105.615 71.104 101.25 66.7388 101.25 61.354C101.25 55.9692 105.615 51.604 111 51.604C116.385 51.604 120.75 55.9692 120.75 61.354Z" stroke="#1A1A1A" stroke-width="2"/>
<path fill-rule="evenodd" clip-rule="evenodd" d="M106.481 191.803C121.729 195.679 139.029 194.838 155.719 188.335C172.361 181.851 185.641 170.811 194.251 157.689C179.066 156.893 162.749 159.405 146.727 165.648C130.772 171.864 117.105 181.002 106.481 191.803Z" fill="#1A1A1A"/>
</svg>
