<svg width="300" height="300" viewBox="0 0 300 300" fill="none" xmlns="http://www.w3.org/2000/svg">
<rect width="300" height="300" fill="white"/>
<path d="M143.67 247.729L227.425 215.094V195.891H216.827L120.146 223.786L143.67 247.729Z" fill="#1A1A1A"/>
<path d="M104.702 225.937L198.096 179.852L201.555 175.884H167.097H51.4543L104.702 225.937Z" fill="#1A1A1A"/>
<path d="M106.473 224.302L88.1826 73.0543L182.138 81.8291L200.621 211.21L106.473 224.302Z" fill="white" stroke="#1A1A1A" stroke-width="2"/>
<path d="M145.03 245.943L127.087 94.7407L205.655 102.038L222.032 118.415L242.143 230.04L145.03 245.943Z" fill="white"/>
<path d="M222.032 118.415L205.655 102.038L127.087 94.7407L145.03 245.943L242.143 230.04L222.032 118.415ZM205.655 102.038L209.523 117.251L222.032 118.415" stroke="#1A1A1A" stroke-width="2"/>
<path d="M106.617 104.234L120.531 221.81L141.093 219.054L128.989 105.813L106.617 104.234Z" fill="#1A1A1A"/>
<path fill-rule="evenodd" clip-rule="evenodd" d="M194.81 129.413L146.209 127.625L146.999 133.878L195.559 134.931L194.81 129.413ZM151.564 170.014L152.131 174.505L214.928 171.46L214.278 167.422L151.564 170.014ZM213.746 164.116L213.083 159.993L150.501 161.599L151.057 166.007L213.746 164.116ZM189.832 180.592L189.244 176.361L152.645 178.576L153.223 183.151L189.832 180.592ZM149.192 151.24L149.735 155.541L212.204 154.532L211.597 150.761L149.192 151.24Z" fill="#1A1A1A"/>
<path d="M210.455 118.201L207.095 103.983L222.761 119.597L210.455 118.201Z" fill="#1A1A1A"/>
</svg>
