<svg width="300" height="300" viewBox="0 0 300 300" fill="none" xmlns="http://www.w3.org/2000/svg">
<rect width="300" height="300" fill="white"/>
<path d="M83.898 234.755L211.312 186.678H176.931H143.831H32.7515L83.898 234.755Z" fill="#1A1A1A"/>
<path d="M264.82 132.328L235.948 217.495L85.0749 233.22L61.4919 106.895L207.778 109.959L214.721 134.242L264.82 132.328Z" fill="white"/>
<path d="M85.0749 233.22L111.939 121.092L167.582 119.388L173.858 135.804L214.721 134.242M214.721 134.242L207.778 109.959L61.4919 106.895L85.0749 233.22L235.948 217.495L264.82 132.328L214.721 134.242Z" stroke="#1A1A1A" stroke-width="2"/>
<path d="M85.219 139.894L85.219 230.85L107.333 139.384L85.219 139.894Z" fill="#1A1A1A"/>
<path d="M154.396 172.835L167.596 195.122L203.896 160.622" stroke="#1A1A1A" stroke-width="6"/>
</svg>
